<svg width="200" height="47" viewBox="0 0 200 47" fill="none" xmlns="http://www.w3.org/2000/svg">
<path fill-rule="evenodd" clip-rule="evenodd" d="M181.715 15.9456C181.715 16.901 182.724 17.2445 184.345 17.47L184.302 17.4807C186.611 17.8028 188.78 18.4039 188.758 20.9374C188.737 23.4708 186.471 24.3726 184.152 24.3726C181.833 24.3726 180.319 23.5782 179.385 21.8606L180.781 20.9266C181.505 22.0797 182.792 22.7559 184.152 22.6979C184.786 22.6979 186.879 22.5691 186.879 20.9266C186.879 19.9498 186.181 19.4237 184.109 19.1661C182.037 18.9085 179.814 18.4039 179.814 15.9456C179.792 15.1989 180.08 14.4762 180.609 13.9489C181.58 13.1165 182.832 12.6864 184.109 12.7466C186.095 12.7466 187.448 13.3585 188.243 14.6145L186.879 15.5269C186.223 14.7342 185.234 14.2935 184.206 14.3354C182.692 14.3354 181.715 14.9902 181.715 15.9456ZM55.6077 12.8333C52.4233 12.8333 49.8418 15.4142 49.8418 18.598C49.8418 21.7817 52.4233 24.3627 55.6077 24.3627C58.792 24.3627 61.3735 21.7817 61.3735 18.598C61.3676 15.4167 58.7896 12.8392 55.6077 12.8333ZM45.3207 20.7555L39.179 13.0585H37.7402V24.1155H39.6085V16.4507L45.7502 24.094H47.1567V13.037H45.3207V20.7555ZM75.6016 14.7117H79.2307V24.1155H81.099V14.7117H84.6959V13.037H75.6016V14.7117ZM71.5952 21.5915C71.0905 20.84 70.5215 19.9812 70.4678 19.8309C72.0773 19.6145 73.2739 18.234 73.2594 16.6104C73.2594 14.8714 72.0461 13.1216 69.3296 13.1216H64.1973V24.1142H66.0548V20.0242H68.2881H68.374C68.5385 20.1811 68.6731 20.3666 68.7713 20.5717L68.8894 20.7756L69.7484 22.139C70.3866 23.4656 71.769 24.2694 73.238 24.1679H74.1184V22.6757H73.399C72.6462 22.676 71.9538 22.2639 71.5952 21.6022V21.5915ZM66.0312 18.382H69.3276V18.3283C69.8456 18.4229 70.3786 18.2777 70.7771 17.9335C71.1756 17.5893 71.3967 17.0832 71.3784 16.557C71.3929 16.0299 71.1746 15.5232 70.7816 15.1716C70.3885 14.82 69.8606 14.6592 69.3383 14.7321H66.0312V18.382ZM89.4923 17.8141H95.2045V13.037H97.0405V24.1155H95.2045V19.5531H89.4923V24.1155H87.6348V13.037H89.4923V17.8141ZM51.8777 20.1422C52.5026 21.6505 53.9747 22.6339 55.6076 22.6339C57.8348 22.628 59.6389 20.8244 59.6448 18.5976C59.6448 16.965 58.6611 15.4932 57.1526 14.8685C55.644 14.2437 53.9075 14.5891 52.7529 15.7435C51.5983 16.8978 51.2529 18.634 51.8777 20.1422ZM143.168 14.7224H146.776V24.1262H148.644V14.7117H152.241V13.037H143.168V14.7224ZM190.926 13.0477V14.7331H194.533V24.137H196.402V14.7117H199.999V13.037H190.926V13.0477ZM102.936 19.4887H108.251V17.7067H102.882V14.862H109.292V13.037H101.121V24.1155H109.292V22.2906H102.936V19.4887ZM174.823 19.553C174.916 20.3471 174.661 21.1428 174.124 21.7353C173.587 22.3278 172.82 22.6594 172.02 22.6446H171.827C171.035 22.6473 170.281 22.3101 169.755 21.7187C169.229 21.1272 168.983 20.3385 169.078 19.553V13.112H167.382V19.553C167.287 20.8156 167.732 22.0593 168.605 22.9758C169.479 23.8924 170.7 24.3961 171.966 24.3622H172.192C173.469 24.4231 174.709 23.9289 175.594 23.0071C176.479 22.0852 176.922 20.8257 176.809 19.553V13.112H174.973V19.553H174.823ZM161.334 19.8636C161.398 20.0246 161.967 20.8834 162.472 21.6349L162.59 21.6027C162.952 22.2661 163.649 22.6781 164.405 22.6762H165.124V24.1147H164.212C162.743 24.2162 161.36 23.4124 160.722 22.0858L159.863 20.7224L159.659 20.3789L159.562 20.2286L159.262 20.0783L159.187 20.0246H156.889V24.1147H155.031V13.1542H160.196C162.912 13.1542 164.126 14.904 164.126 16.6431C164.14 18.2667 162.943 19.6472 161.334 19.8636ZM160.328 18.382H157.074V14.7321H160.381C160.904 14.6592 161.432 14.82 161.825 15.1716C162.218 15.5232 162.436 16.0299 162.421 16.557C162.44 17.0832 162.219 17.5893 161.82 17.9335C161.422 18.2777 160.889 18.4229 160.371 18.3283L160.328 18.382ZM119.203 19.7887C119.257 19.9389 119.826 20.7977 120.331 21.5492L120.373 21.6029C120.732 22.2646 121.425 22.6766 122.177 22.6764H122.822V24.1685H121.941C120.472 24.2701 119.09 23.4663 118.451 22.1396L117.593 20.7763L117.474 20.583C117.377 20.3747 117.242 20.1856 117.077 20.0248H116.991H114.758V24.1149H112.9V13.0793H118.065C120.781 13.0793 121.995 14.8291 121.995 16.5682C122.009 18.1918 120.813 19.5722 119.203 19.7887ZM118.109 18.382H114.812V14.7321H118.12C118.642 14.6592 119.17 14.82 119.563 15.1716C119.956 15.5232 120.174 16.0299 120.16 16.557C120.178 17.0832 119.957 17.5893 119.558 17.9335C119.16 18.2777 118.627 18.4229 118.109 18.3283V18.382ZM133.204 20.6747L127.126 13.0585H125.709V24.1155H127.545V16.4507L133.687 24.094H135.061V13.037H133.204V20.6747Z" fill="#115740"/>
<path fill-rule="evenodd" clip-rule="evenodd" d="M14.8074 16.4166L13.2183 14.3555V7.45289H3.8125V5.81044H11.0279C9.92768 4.29447 10.1495 2.19273 11.542 0.939741C12.9344 -0.313247 15.0482 -0.313247 16.4407 0.939741C17.8331 2.19273 18.055 4.29447 16.9548 5.81044H24.2131V7.45289H14.8074V16.4166ZM14.042 1.52795C12.856 1.52795 11.8945 2.4892 11.8945 3.67495C11.8945 4.8607 12.856 5.82195 14.042 5.82195C15.228 5.82195 16.1894 4.8607 16.1894 3.67495C16.1894 2.4892 15.228 1.52795 14.042 1.52795ZM18.1153 25.8303H20.2627L8.60219 11.2415H5.76758V13.002H7.82911V24.1986H5.76758V25.8411H11.5871V24.1986H9.43969V14.9773L18.1153 25.8303ZM26.4778 21.2259L28.0669 19.8519C28.0684 24.7659 25.4984 29.3227 21.2918 31.8643L14.0335 38.3053L6.77515 31.8643C2.56855 29.3227 -0.00149096 24.7659 6.48927e-07 19.8519L1.59984 21.2259C2.25952 27.2401 7.12732 31.9216 13.1638 32.3474V22.3853L14.8065 24.4464V32.3366C20.8809 31.9616 25.8056 27.2734 26.4778 21.2259ZM14.0337 36.254L10.9629 33.5381C12.9816 33.9899 15.0751 33.9899 17.0938 33.5381L14.0337 36.254ZM22.4953 12.884H20.3478H20.3156V19.851H18.6728V12.884H16.5254V11.2415H22.4953V12.884Z" fill="#115740"/>
<path d="M39.02 46.04H38L40.77 39.15H41.66L44.4 46.04H43.34L42.6 44.05H39.78L39.02 46.04ZM40.09 43.23H42.28C41.48 41.14 41.39 40.84 41.2 40.31C41.01 40.84 40.92 41.13 40.09 43.23Z" fill="#115740"/>
<path d="M45.3158 45.47V44.41H45.3558C46.0458 45.07 46.9858 45.3 47.6858 45.3C48.6358 45.3 49.2158 45.02 49.2158 44.23C49.2158 43.66 48.7458 43.41 47.7058 43.09L46.9358 42.85C45.8558 42.52 45.4058 41.85 45.4058 41.03C45.4058 39.89 46.3358 39 47.9658 39C48.5858 39 49.5258 39.23 49.8558 39.54V40.56H49.8158C49.3058 40.07 48.4158 39.85 47.7958 39.85C46.6258 39.85 46.3758 40.45 46.3758 40.93C46.3758 41.32 46.5558 41.71 47.5458 42.03L48.4458 42.32C49.6858 42.73 50.1758 43.22 50.1758 44.12C50.1758 45.2 49.4658 46.18 47.6358 46.18C46.8758 46.18 45.8758 45.97 45.3158 45.47Z" fill="#115740"/>
<path d="M51.5091 45.47V44.41H51.5491C52.2391 45.07 53.1791 45.3 53.8791 45.3C54.8291 45.3 55.4091 45.02 55.4091 44.23C55.4091 43.66 54.9391 43.41 53.8991 43.09L53.1291 42.85C52.0491 42.52 51.5991 41.85 51.5991 41.03C51.5991 39.89 52.5291 39 54.1591 39C54.7791 39 55.7191 39.23 56.0491 39.54V40.56H56.0091C55.4991 40.07 54.6091 39.85 53.9891 39.85C52.8191 39.85 52.5691 40.45 52.5691 40.93C52.5691 41.32 52.7491 41.71 53.7391 42.03L54.6391 42.32C55.8791 42.73 56.3691 43.22 56.3691 44.12C56.3691 45.2 55.6591 46.18 53.8291 46.18C53.0691 46.18 52.0691 45.97 51.5091 45.47Z" fill="#115740"/>
<path d="M62.4825 46.04H58.1325V39.15H62.3325V40.01H59.1025V42.05H62.1425V42.89H59.1025V45.18H62.4825V46.04Z" fill="#115740"/>
<path d="M66.5122 46.04H65.5422V40.02H63.3922V39.15H68.7422V40.02H66.5122V46.04Z" fill="#115740"/>
<path d="M72.5423 45.47V44.41H72.5823C73.2723 45.07 74.2123 45.3 74.9123 45.3C75.8623 45.3 76.4423 45.02 76.4423 44.23C76.4423 43.66 75.9723 43.41 74.9323 43.09L74.1623 42.85C73.0823 42.52 72.6323 41.85 72.6323 41.03C72.6323 39.89 73.5623 39 75.1923 39C75.8123 39 76.7523 39.23 77.0823 39.54V40.56H77.0423C76.5323 40.07 75.6423 39.85 75.0223 39.85C73.8523 39.85 73.6023 40.45 73.6023 40.93C73.6023 41.32 73.7823 41.71 74.7723 42.03L75.6723 42.32C76.9123 42.73 77.4023 43.22 77.4023 44.12C77.4023 45.2 76.6923 46.18 74.8623 46.18C74.1023 46.18 73.1023 45.97 72.5423 45.47Z" fill="#115740"/>
<path d="M83.5157 46.04H79.1657V39.15H83.3657V40.01H80.1357V42.05H83.1757V42.89H80.1357V45.18H83.5157V46.04Z" fill="#115740"/>
<path d="M90.4416 46.04H89.3216L87.6716 43.19C87.4716 43.21 87.2616 43.21 87.0516 43.21H86.2216V46.04H85.2516V39.15H87.1916C87.9016 39.15 88.4816 39.22 88.8716 39.36C89.5516 39.6 90.0216 40.2 90.0216 41.09C90.0216 42.11 89.4716 42.73 88.6316 43.01L90.4416 46.04ZM86.2216 42.4H87.0816C87.7116 42.4 88.1916 42.32 88.4516 42.2C88.8316 42.02 89.0416 41.68 89.0416 41.13C89.0416 40.64 88.7616 40.3 88.3616 40.15C88.0916 40.05 87.5816 39.98 87.1216 39.98H86.2216V42.4Z" fill="#115740"/>
<path d="M94.6249 46.04H93.7349L91.0349 39.15H92.1049C93.6049 42.94 93.8349 43.66 94.2149 44.74C94.5949 43.67 94.8649 42.93 96.3249 39.15H97.3549L94.6249 46.04Z" fill="#115740"/>
<path d="M99.7119 46.04H98.7419V39.15H99.7119V46.04Z" fill="#115740"/>
<path d="M107.347 45.5C106.937 45.87 106.037 46.18 105.197 46.18C103.127 46.18 101.587 44.79 101.587 42.59C101.587 40.29 103.377 39 105.297 39C106.047 39 106.917 39.23 107.317 39.61V40.62H107.277C106.807 40.13 105.977 39.85 105.257 39.85C103.827 39.85 102.557 40.82 102.557 42.55C102.557 44.41 103.767 45.31 105.227 45.31C106.087 45.31 106.787 44.97 107.307 44.5H107.347V45.5Z" fill="#115740"/>
<path d="M110.077 46.04H109.107V39.15H110.077V46.04Z" fill="#115740"/>
<path d="M113.243 46.04H112.293V39.15H113.283C116.013 42.88 116.393 43.42 116.923 44.24C116.893 43.01 116.883 42.04 116.883 39.15H117.833V46.04H117.053C113.983 41.69 113.673 41.2 113.213 40.54C113.243 42.16 113.243 43.01 113.243 46.04Z" fill="#115740"/>
<path d="M125.829 45.51C125.309 45.85 124.379 46.18 123.329 46.18C121.299 46.18 119.739 44.9 119.739 42.59C119.739 40.22 121.499 39 123.459 39C124.269 39 125.129 39.23 125.559 39.6V40.61H125.519C125.089 40.14 124.309 39.86 123.459 39.86C122.009 39.86 120.739 40.7 120.739 42.53C120.739 44.39 121.949 45.31 123.439 45.31C124.029 45.31 124.519 45.2 124.889 45.03V43.27H123.169V42.4H125.829V45.51Z" fill="#115740"/>
</svg>
