<svg xmlns="http://www.w3.org/2000/svg" xmlns:xlink="http://www.w3.org/1999/xlink" x="0px" y="0px" viewBox="0 0 85.58 46.38" style="enable-background:new 0 0 85.58 46.38;" xml:space="preserve"> <style type="text/css"> .b{fill:none;} .c{fill:#10283F;} .a{fill:#E97414;} </style> <g id="logo_jupiter"> <rect x="23.74" y="34.77" class="b" width="2.51" height="11.61"></rect> <rect x="37.63" class="b" width="2.51" height="11.61"></rect> <rect x="0" y="31.89" class="b" width="11.61" height="2.51"></rect> <rect x="73.97" y="32.07" class="b" width="11.61" height="2.51"></rect> <rect x="23.74" y="34.77" class="b" width="2.51" height="11.61"></rect> <rect x="37.63" class="b" width="2.51" height="11.61"></rect> <rect x="0" y="31.89" class="b" width="11.61" height="2.51"></rect> <rect x="73.97" y="32.07" class="b" width="11.61" height="2.51"></rect> </g> <g id="artwork_1_"> <g> <path class="c" d="M71.26,30.2c1.21-0.67,2.03-1.92,2.03-3.36c0-2.14-1.8-3.87-4.02-3.87h-4.61v11.61h2.51V30.7h1.66l2.4,3.88 h2.73L71.26,30.2z M69.46,28.37h-2.28V25.3h2.28c0.75,0,1.35,0.69,1.35,1.54C70.81,27.69,70.2,28.37,69.46,28.37z M54.89,34.58 h7.76v-2.33h-5.25v-2.31h4.88v-2.33h-4.88V25.3h5.25v-2.33h-7.76V34.58z M44.94,25.3h3.07v9.28h2.51V25.3h3.07v-2.33h-8.66V25.3z M41,34.58h2.51V22.97H41V34.58z M35.34,22.97h-4.61v11.61h2.51V30.7h2.1c2.22,0,4.02-1.73,4.02-3.87S37.56,22.97,35.34,22.97z M35.52,28.37h-2.28V25.3h2.28c0.75,0,1.35,0.69,1.35,1.54C36.87,27.69,36.27,28.37,35.52,28.37z M26.06,29.81 c0,1.34-1.04,2.44-2.32,2.44c-1.28,0-2.32-1.09-2.32-2.44v-6.84h-2.52v6.96c0,2.67,2.17,4.84,4.84,4.84 c2.67,0,4.84-2.17,4.84-4.84v-6.96h-2.52V29.81z M14.41,31.27c0,1.05-1.03,1.45-1.78,1.03l-1.03,2.1c2.16,0.99,5.37,0.04,5.37-3.3 v-8.14h-2.56V31.27z"></path> <path class="a" d="M37.97,16.41c-0.15-0.07-0.37-0.26-0.67-0.33c-0.22-0.05-2.76-0.76-2.39-0.59c0.33,0.16,1.36,0.54,1.91,0.7 C39.46,16.95,38.21,16.52,37.97,16.41z M33.62,17.83c-0.35-0.2-0.47-0.13-0.71-0.16c-0.08-0.01-0.27-0.05-0.29-0.04 c-0.09,0.03,0.28,0.17,0.34,0.18c0.72,0.18,0.22,0.18,1.23,0.36c0.15,0.03,0.93,0.32,1.08,0.32c0.17-0.01-0.59-0.25-0.69-0.34 C34.39,17.99,33.88,17.97,33.62,17.83z M34.69,18.82c0.05,0.03,0.09,0.08,0.15,0.11c0.11,0.06,0.45,0.12,0.67,0.18 c0.96,0.26,0.81,0.33,1.74,0.44c0.13,0.02,0.23,0.05,0.25,0.04c0.17-0.05-3.64-1.22-3.64-1.21 C33.79,18.41,34.43,18.64,34.69,18.82z M41.45,21.15c-0.24-0.11-0.43-0.22-0.43-0.22c-0.27-0.12-0.55-0.02-1.09-0.18 c0,0-2.13-0.7-1.78-0.49c0.12,0.08-0.1-0.06,1.44,0.52c0.22,0.08-0.09,0.07,0.13,0.14c0.65,0.21,0.91,0.08,1.13,0.2 C41.31,21.38,41.7,21.25,41.45,21.15z M30.55,21.15c0.58,0,0.56,0,0.6,0c-0.15-0.09-0.44-0.35-0.73-0.37 C30.46,20.91,30.5,21.03,30.55,21.15z M32,20.13c0.1-0.17,2.41,0.89,2.7,0.75c0.09-0.04-0.6-0.19-1.12-0.37 c-1.83-0.65-2.82-1.02-3.46-1.25c0.03,0.34,0.08,0.67,0.16,1c0.18,0.02,0.89,0.13,1.59,0.47c0.27,0.13,0.36,0.07,0.98,0.3 c0.42,0.16,0.27,0.26,2.11,0.26c0.7,0-0.33-0.09-1.4-0.54C32.91,20.46,31.96,20.2,32,20.13z M36.82,11.62 c0.22,0.04,0.68,0.25,0.78,0.28c0.32,0.1,0.43,0,0.88,0.21c0.47,0.22,1,0.33,1.47,0.54c0.53,0.24,1.13,0.71,1.03,0.75 c-0.01,0-0.94-0.2-1.44-0.35c-1.71-0.51-1.64-0.64-2.72-0.96c-0.59-0.18-0.88-0.23-0.87-0.17c-0.02,0.16,1.21,0.4,2.08,0.94 c0.18,0.18,1.93,0.7,2.47,0.79c0.91,0.15,0.93,0.27,0.63,0.28c-0.98,0.04-1.83-0.41-2.74-0.56c-0.3-0.05-0.63-0.12-0.66-0.04 c0,0.05,0.38,0.13,0.46,0.16c2.38,0.89,2.11,1.06,3.2,1.56c0.78,0.36,0.94,0.67,0.81,0.61c-1.6-0.76-1.97-0.48-3.06-1.22 c-1.39-0.95-1.18-0.67-2.31-0.95c-0.75-0.18-1.46-0.55-2.22-0.63c-0.72-0.08,0.17-0.28,1.64-0.03c0.6,0.1,0.59,0.07,0.74,0.11 c0.08,0.02,0.24,0.07,0.31,0.07c0.12-0.01-0.06-0.11-0.08-0.13c-0.09-0.05-0.19-0.07-0.28-0.11c-1.63-0.68-1.92-0.4-1.86-0.58 c0.03-0.09,0.64-0.04,0.76-0.08c0.09-0.04-0.17-0.12-0.22-0.15c-0.08-0.03-0.08-0.1-0.16-0.14c-0.76,0.19-1.48,0.5-2.12,0.91 c1.21,0.41,5.12,1.35,5.19,1.65c0.01,0.05-4.22-1.05-5.38-1.52c-0.15,0.1-0.3,0.21-0.44,0.33c1.13,0.53,10.26,2.99,9.76,3.02 c-1.2,0.08-3.71-1.02-6.02-1.43c-1.22-0.22-1.38-0.33,3.27,1.11c1.41,0.44,3.25,1.2,3.16,1.32c-0.05,0.07-3.16-1.08-7.47-2.2 c-0.58-0.15-1.14-0.39-1.72-0.57c-0.53-0.16-1.15-0.36-1.52-0.77c-0.19,0.19-0.38,0.4-0.55,0.61c0.21,0.07,0.53,0.01,0.63,0.03 c0.31,0.05,0.15,0.2,0.88,0.19c0.73-0.01,8.91,2.76,9.4,3.11c0.13,0.09,0.49,0.38,0.56,0.5c0.12,0.2-0.19-0.05-4.27-1.22 c-0.58-0.17-1.18-0.27-1.76-0.43c-0.57-0.16-1.12-0.38-1.69-0.53c-0.3-0.08-0.62-0.11-0.92-0.2c-0.23-0.07-0.44-0.2-0.68-0.26 c-2.36-0.65-2.27-0.64-2.27-0.61c-0.01,0.25,2.28,0.76,6.66,2.13c0.45,0.14,0.89,0.34,1.33,0.48c1.5,0.49-1.36,0-2.38-0.29 c0,0-1-0.3-2.07-0.54c-0.94-0.21-0.84,0.1-2.44-0.5c-0.4-0.15-0.84-0.28-1.48-0.12c-0.05,0.01-0.12,0.03-0.03,0.07 c0.08,0.04,0.17,0.02,0.44,0.01c0.42-0.02,0.54,0.05,0.9,0.28c0.57,0.35,0.9,0.29,1.67,0.47c1.22,0.27,1.64,0.76,4.34,1.65 c0.92,0.31,2.21,0.68,3.41,1.27c-0.9,0.14-1.86-0.55-3.27-0.81c-0.13-0.02-0.2-0.09-0.31-0.17c-0.16-0.12-0.47-0.16-0.48-0.17 c-1.02-0.22-0.89-0.11-0.85-0.1c1.29,0.26,1.08,0.31,1.35,0.48c0.27,0.17,0.43,0.06,1.38,0.5c0.1,0.04,0.09,0.11-0.04,0.11 c-0.05,0-0.61-0.07-0.61-0.07c-0.23-0.03-0.72-0.05-1.26-0.33c-0.06-0.03-1.73-0.8-1.8-0.71c-0.05,0.06,0.27,0.11,0.62,0.3 c0.2,0.1,0.39,0.22,0.59,0.33c0.16,0.09,0.35,0.16,0.5,0.26c1.6,1.01,1.32,0.25,2.28,0.92c0.32,0.22,0.8,0.24,1.42,0.55 c0.74,0.38-0.06,0.3,2.36,0.3C45.53,16.41,41.86,11.38,36.82,11.62z M39.34,20.92c-0.51-0.17-0.67-0.26-1.34-0.47 c0,0-7.02-1.92-7.88-2.39c0,0-0.03,0.32-0.03,0.6c0,0.25,9.14,3.13,8.91,3.17c-0.25,0.05-0.57-0.11-0.87,0.02 c0.51,0.49,0.87-0.12,1.55,0.34c0.12,0.08,0.56,0.03,0.33-0.07c-1.18-0.52,0.17-0.12-2.67-1.13c-0.79-0.28-0.98-0.35-0.7-0.3 c3.3,0.69,2.79,0.97,3.77,0.93c0.22-0.01,0.63-0.12,0.46-0.2C40.72,21.35,39.79,21.07,39.34,20.92z"></path> </g> </g> </svg>